<svg width="128" height="133" viewBox="0 0 128 133" fill="none" xmlns="http://www.w3.org/2000/svg">
<path d="M72.6906 41.136C71.9112 46.9826 68.4029 51.4645 63.921 51.4645C59.634 51.4645 55.9309 46.9819 55.1515 41.136H45.0178L51.449 90.0511L63.9217 90.4408L76.3937 90.0511L82.825 41.136H72.6906Z" fill="#FDB171"/>
<path d="M78.8421 18.1402V17.5556C78.8421 16.7762 78.6473 15.9967 78.6473 15.4121C77.41 16.1559 75.9979 16.5593 74.5544 16.5813V17.3608C74.5544 18.1402 74.7493 18.7282 74.7493 19.1145C75.0603 18.815 75.4899 18.6717 75.9185 18.7248C76.8928 18.9197 77.6723 20.6735 77.286 22.4272C77.0911 23.9861 76.3116 25.1553 75.3373 25.5451C75.1424 25.5451 74.9476 25.7399 74.7527 25.5451H74.5578C73.7784 28.468 72.8041 31.002 71.8297 31.9763C70.4623 33.3437 69.4914 34.5095 68.7119 35.289V41.5253C72.0246 41.3305 75.1431 46.0079 84.6922 39.7715C83.1333 40.1613 80.6 38.7972 81.7692 38.4041C82.9384 38.0109 86.0569 38.2092 89.9542 34.5068C87.6158 34.8965 82.1596 33.9222 86.8364 32.1684C81.3761 31.977 79.8165 25.5457 78.8421 18.1402Z" fill="#6E4020"/>
<path d="M58.4641 32.6105V40.4345C58.4157 40.8505 58.4777 41.2719 58.6439 41.6564C59.1834 44.5896 60.9803 46.7892 63.3166 46.7892H63.856C66.1924 46.7892 67.9899 44.5896 68.5294 41.6564C68.5294 41.1675 68.7092 40.6786 68.7092 40.1898V32.3665C66.1903 32.6105 60.8004 32.6105 58.4641 32.6105Z" fill="#EC9E5D"/>
<rect x="55.1515" y="41.136" width="17.734" height="17.9289" fill="#EC9E5D"/>
<path d="M22.8005 26.5199L15.9796 27.6891L15.0052 16.776C13.6378 16.3863 13.0566 15.2171 12.2771 13.4633L10.9097 7.81156C13.8326 6.05778 17.146 5.66805 20.6536 5.27832L21.2382 8.98075L22.7971 8.59102V12.4883C22.7154 13.5862 22.1426 14.5886 21.2382 15.2164L20.069 15.6061L22.8005 26.5199Z" fill="#E6B07C"/>
<path d="M24.9447 9.17553C19.7269 10.6028 14.3679 11.4523 8.96448 11.7088L8.37988 8.20121C13.5978 6.77397 18.9567 5.92446 24.3601 5.66797L24.9447 9.17553Z" fill="#3D4545"/>
<circle cx="5.45689" cy="10.3446" r="5.45689" fill="#3D4545"/>
<circle cx="27.8683" cy="6.83726" r="5.45689" fill="#3D4545"/>
<path d="M3.31273 8.78587C2.53327 9.95505 2.14354 9.95505 1.55895 9.76019C0.974355 9.56533 0.77949 8.591 1.36408 7.61668C1.94868 6.64236 2.923 6.24921 3.50759 6.83722C3.89732 7.22695 3.89732 7.616 3.31273 8.78587Z" fill="white"/>
<path d="M25.5293 5.08274C24.7498 6.25193 24.3601 6.25193 23.7755 6.05706C23.1909 5.8622 22.996 4.88788 23.5806 3.91356C24.1652 2.93923 25.1396 2.54609 25.7241 3.1341C26.1139 3.52383 26.3087 4.10842 25.5293 5.08274Z" fill="white"/>
<path d="M18.3187 7.22684C18.5135 8.0063 18.7084 8.39603 19.293 8.39603H20.0725C20.4622 8.39603 20.2673 8.39603 20.4622 8.20116C20.6571 8.0063 20.6571 7.42171 20.6571 7.03198V4.49874C20.6497 4.13742 20.5112 3.79111 20.2673 3.52442C20.0172 3.25853 19.6261 3.1803 19.293 3.32955H18.9033C18.3187 3.32955 17.929 3.91414 17.929 4.69702L18.3187 7.22684Z" fill="#FDB171"/>
<path d="M15.7854 8.00487C15.7854 8.3946 15.9802 8.58947 16.37 8.9792C16.62 9.24509 17.0112 9.32331 17.3443 9.17406C17.6947 9.12314 18.005 8.92063 18.1926 8.62035C18.3803 8.32008 18.4264 7.95244 18.3186 7.61515L18.1237 4.30245C18.1237 3.91272 17.9289 3.71785 17.734 3.32813C17.4839 3.06224 17.0928 2.98402 16.7597 3.13326H16.37C15.7854 3.13326 15.3956 3.71785 15.3956 4.50073L15.7854 8.00487Z" fill="#FDB171"/>
<path d="M13.4469 8.59084C13.6418 9.37029 13.8366 9.95831 14.6161 9.76002H14.811C15.2007 9.76002 15.3956 9.56516 15.5904 9.17543C15.8561 8.92523 15.9343 8.53425 15.7853 8.20111L15.3956 5.473C15.3548 5.15694 15.1841 4.87219 14.9246 4.68727C14.665 4.50235 14.3401 4.434 14.0281 4.49868H13.6384C13.2486 4.49868 13.0538 4.69355 12.8589 5.08328C12.6821 5.37529 12.6131 5.72003 12.664 6.0576L13.4469 8.59084Z" fill="#FDB171"/>
<path d="M11.3028 8.78509C11.2869 9.04806 11.3844 9.30526 11.5707 9.49155C11.757 9.67784 12.0142 9.77536 12.2772 9.75942H12.472C13.0591 9.69647 13.4903 9.17903 13.4464 8.59023L13.2515 6.64158C13.2446 6.36202 13.102 6.10331 12.8693 5.94819C12.6367 5.79307 12.343 5.76096 12.0823 5.86213H11.6926C11.108 5.86213 10.7183 6.44672 10.9131 6.83645L11.3028 8.78509Z" fill="#FDB171"/>
<path d="M17.7341 18.5297L17.3443 15.8016C16.9611 14.7685 17.0146 13.6239 17.4924 12.631C17.9701 11.6381 18.8311 10.8821 19.8776 10.5368C19.8776 10.5368 20.2673 9.36766 20.0724 9.16937L19.0981 8.19505C18.1238 7.22073 18.1238 6.24641 18.3186 5.85668L18.5135 5.66181C18.6516 5.47787 18.8681 5.36963 19.0981 5.36963C19.3281 5.36963 19.5447 5.47787 19.6827 5.66181L20.8519 6.63613L22.6057 8.0036C22.8005 8.19847 22.9954 8.39333 22.9954 8.5882V12.4855C22.9137 13.5834 22.3409 14.5858 21.4365 15.2136L20.4622 15.993L22.9954 26.3216L19.0981 27.101L17.7341 18.5297Z" fill="#FDB171"/>
<path d="M105.235 26.5199L112.056 27.6891L113.03 16.776C114.398 16.3863 114.979 15.2171 115.758 13.4633L117.126 7.81156C114.203 6.05778 110.889 5.66805 107.382 5.27832L106.797 8.98075L105.238 8.59102V12.4883C105.32 13.5862 105.893 14.5886 106.797 15.2164L107.967 15.6061L105.235 26.5199Z" fill="#E6B07C"/>
<path d="M102.897 9.17553C108.114 10.6028 113.473 11.4523 118.877 11.7088L119.461 8.20121C114.244 6.77398 108.885 5.92447 103.481 5.66797L102.897 9.17553Z" fill="#3D4545"/>
<circle cx="122.385" cy="10.3446" r="5.45689" fill="#3D4545"/>
<circle cx="99.9736" cy="6.83726" r="5.45689" fill="#3D4545"/>
<path d="M121.02 7.81152C121.995 6.83719 121.995 6.44405 121.605 5.86287C121.215 5.2817 120.436 5.27828 119.461 6.2526C118.682 7.03206 118.487 8.00638 119.072 8.39611C119.656 8.78584 120.241 8.78584 121.02 7.81152Z" fill="white"/>
<path d="M97.6345 5.08337C98.414 3.91418 98.2191 3.52445 97.8294 3.13472C97.4397 2.74499 96.4619 2.93986 95.8808 3.91418C95.2996 4.8885 95.2962 5.86283 95.8808 6.05769C96.4654 6.25255 96.8551 6.05769 97.6345 5.08337Z" fill="white"/>
<path d="M109.523 7.22684C109.328 8.0063 109.133 8.39603 108.548 8.39603H107.769C107.379 8.39603 107.574 8.39603 107.379 8.20116C107.184 8.0063 107.184 7.42171 107.184 7.03198V4.49874C107.192 4.13742 107.33 3.79111 107.574 3.52442C107.824 3.25853 108.215 3.1803 108.548 3.32955H108.938C109.523 3.32955 109.912 3.91414 109.912 4.69702L109.523 7.22684Z" fill="#FDB171"/>
<path d="M112.056 8.00645C112.056 8.39617 111.861 8.59104 111.471 8.98077C111.221 9.24666 110.83 9.32488 110.497 9.17563C110.147 9.12471 109.836 8.9222 109.649 8.62193C109.461 8.32165 109.415 7.95402 109.523 7.61672L109.718 4.30402C109.718 3.91429 109.912 3.71943 110.107 3.3297C110.302 2.93997 110.692 2.93997 111.082 3.13483H111.471C112.056 3.13483 112.446 3.71943 112.446 4.5023L112.056 8.00645Z" fill="#FDB171"/>
<path d="M114.397 8.59084C114.202 9.37029 114.007 9.95831 113.228 9.76002H113.03C112.64 9.76002 112.445 9.56516 112.25 9.17543C111.984 8.92533 111.906 8.53423 112.055 8.20111L112.445 5.473C112.486 5.15694 112.656 4.87219 112.916 4.68727C113.176 4.50235 113.5 4.434 113.812 4.49868H114.202C114.592 4.49868 114.787 4.69355 114.982 5.08328C115.158 5.37529 115.227 5.72003 115.177 6.0576L114.397 8.59084Z" fill="#FDB171"/>
<path d="M116.538 8.78509C116.554 9.04806 116.456 9.30526 116.27 9.49155C116.084 9.67784 115.826 9.77536 115.564 9.75942H115.369C114.782 9.69647 114.35 9.17903 114.394 8.59023L114.589 6.64158C114.596 6.36202 114.739 6.10331 114.971 5.94819C115.204 5.79307 115.498 5.76096 115.758 5.86213H116.148C116.733 5.86213 117.122 6.44672 116.928 6.83645L116.538 8.78509Z" fill="#FDB171"/>
<path d="M110.305 18.5297L110.695 15.8016C111.078 14.7685 111.024 13.6239 110.547 12.631C110.069 11.6381 109.208 10.8821 108.161 10.5368C108.161 10.5368 107.772 9.36766 107.967 9.16937L108.941 8.19505C109.915 7.22073 109.915 6.24641 109.72 5.85668L109.525 5.66181C109.387 5.47787 109.171 5.36963 108.941 5.36963C108.711 5.36963 108.494 5.47787 108.356 5.66181L107.187 6.63613L105.433 8.0036C105.238 8.19847 105.044 8.39333 105.044 8.5882V12.4855C105.125 13.5834 105.698 14.5858 106.602 15.2136L107.577 15.993L105.04 26.325L108.743 27.1044L110.305 18.5297Z" fill="#FDB171"/>
<path d="M81.6551 52.0491L106.21 48.9313C108.779 48.5814 110.597 46.2423 110.302 43.6665C110.052 41.1014 107.806 39.2011 105.235 39.3795L78.9263 41.3282V49.9029C78.9958 50.5527 79.3247 51.147 79.8384 51.551C80.3521 51.955 81.0071 52.1346 81.6551 52.0491Z" fill="#FFCF9F"/>
<path d="M22.0217 48.9315C20.7762 48.948 19.5768 48.4605 18.696 47.5797C17.8152 46.6989 17.3277 45.4995 17.3443 44.254L14.811 16.7761L20.6577 15.8018L26.6991 44.254C26.7488 45.5091 26.2719 46.7279 25.3837 47.616C24.4956 48.5042 23.2768 48.9811 22.0217 48.9315Z" fill="#FDB171"/>
<path d="M105.82 48.9315C107.066 48.948 108.265 48.4605 109.146 47.5797C110.027 46.6989 110.514 45.4996 110.498 44.254L113.031 16.7761L107.184 15.8018L101.143 44.254C101.126 45.4996 101.614 46.6989 102.495 47.5797C103.375 48.4605 104.575 48.948 105.82 48.9315Z" fill="#FDB171"/>
<path d="M48.1357 17.3641C48.1039 16.8996 48.1703 16.4337 48.3305 15.9966C48.3771 16.4615 48.3102 16.9307 48.1357 17.3641Z" fill="#A15E2E"/>
<path d="M86.5 8.00716C87.6692 6.44825 88.0589 5.47392 89.0332 2.94C89.0332 2.94 87.2795 5.27838 82.2123 4.88865C82.0174 4.88865 83.1866 3.32973 82.7969 3.52118C80.6108 4.05241 78.3219 3.98509 76.1708 3.32631C74.6782 2.76115 73.0886 2.49626 71.4934 2.54685C72.2728 1.7674 71.4934 -0.18125 71.2985 0.013615C69.9311 1.96226 67.791 1.7674 63.6981 2.74172C60.3854 3.13145 51.6158 5.08009 49.6665 15.4093C49.6665 15.799 49.4716 15.9939 49.4716 16.3836C49.4716 16.7733 49.2768 17.1631 49.2768 17.7511V18.3357C47.523 29.8334 52.3946 37.4338 59.6053 40.1625V35.68C58.8258 34.9005 57.8515 33.7313 56.4875 32.3673C55.5131 31.1981 54.5388 28.8597 53.7593 25.9361H52.9799C52.2004 25.5463 51.421 24.3771 51.0312 22.8182C50.6415 20.8696 51.421 19.1158 52.3987 19.1158C52.8273 19.0627 53.2569 19.206 53.5679 19.5055C53.5362 18.9142 53.602 18.3217 53.7628 17.7518C53.9576 16.3843 54.1525 15.2185 54.3474 14.0493C54.5476 13.2513 54.8082 12.4696 55.1268 11.711C61.7529 10.3435 68.1862 17.9473 76.1742 17.1678C77.5838 16.96 78.9598 16.5669 80.2664 15.9987C82.7996 14.8295 85.3335 12.686 88.061 8.98285C88.4486 8.20134 86.3086 8.00716 86.5 8.00716Z" fill="#884F27"/>
<path d="M76.393 18.7247C75.9645 18.6716 75.5349 18.8148 75.2238 19.1144C75.2363 18.5238 75.1708 17.9341 75.029 17.3606V16.5812C67.0389 17.3606 60.6076 9.76021 53.9816 11.1243C53.5766 11.8476 53.3122 12.641 53.2021 13.4626C53.0072 14.6318 52.8124 15.801 52.6175 17.1651C52.6175 17.7497 52.4227 18.3342 52.4227 18.9188C52.1116 18.6193 51.682 18.4761 51.2535 18.5291C50.2791 18.724 49.4997 20.4778 49.886 22.2315C50.0809 23.7905 50.8603 24.9596 51.8346 25.3494C52.0295 25.3494 52.2244 25.5442 52.4192 25.3494H52.6141C53.3936 28.2723 54.3679 30.8063 55.3422 31.7806C56.7097 33.1481 57.6806 34.3138 58.46 35.0933C59.8275 36.4607 61.1881 37.0419 63.7248 37.2368C66.258 37.0419 67.6221 36.4573 68.9896 35.0933C69.9639 34.3138 70.7433 33.1446 72.1074 31.7806C73.0817 30.6114 74.056 28.273 74.8355 25.3494H75.6149C76.3944 24.9596 77.1739 23.7905 77.5636 22.2315C77.9526 20.4784 77.368 18.9195 76.393 18.7247Z" fill="#FDB171"/>
<path d="M79.7064 64.7169L78.7321 71.343C68.7933 73.8762 58.8546 74.0711 48.9151 71.343L47.9408 64.7169C49.8003 66.4361 52.2295 67.4077 54.7617 67.445C59.8289 67.445 63.9238 63.7426 63.9238 59.26C63.9238 63.7419 68.0159 67.445 72.8882 67.445C75.8085 67.2501 78.1475 66.2758 79.7064 64.7169Z" fill="#CF4433"/>
<path d="M82.8243 41.136L80.8756 55.1676L79.5081 64.7166C77.7026 66.374 75.3328 67.28 72.8821 67.2499C67.8149 67.2499 63.9176 63.5475 63.9176 59.0649C63.9176 63.5475 59.8248 67.2499 54.7556 67.2499C52.2061 67.3028 49.7444 66.3182 47.9346 64.5218L46.7654 55.1676L44.8223 41.136H54.9559C55.7354 46.9826 59.2436 51.4645 63.7255 51.4645C68.2074 51.4645 71.7156 46.9819 72.4951 41.136H82.8243Z" fill="#EB4D3A"/>
<path d="M45.9921 52.0491L21.4371 48.9313C18.8682 48.5814 17.0501 46.2423 17.3449 43.6665C17.5949 41.1014 19.841 39.2011 22.4121 39.3795L50.8644 41.3282C51.0585 41.136 53.7873 51.0748 45.9921 52.0491Z" fill="#FDB171"/>
<path d="M63.9211 108.76L45.0178 142.475C41.5103 147.931 31.5708 146.177 33.1304 136.238C34.1048 116.556 40.536 99.2113 51.2542 87.7129C59.6341 91.0256 68.2108 91.4153 76.7835 87.7129C87.5017 99.2106 93.9329 116.556 94.9073 136.238C96.4662 146.177 86.3325 147.93 83.0198 142.475L63.9211 108.76Z" fill="#FDB171"/>
<path d="M64.1159 61.0136C64.1159 65.4955 60.2186 69.1986 55.3463 69.1986C52.9112 69.2498 50.5706 68.2569 48.9151 66.4705C47.4809 65.0078 46.6466 63.0609 46.5767 61.0136C46.5735 59.6277 46.9803 58.2717 47.7459 57.1163C49.3487 54.4496 52.2349 52.8214 55.3463 52.8286C60.2186 53.0235 64.1159 56.5311 64.1159 61.0136Z" fill="#EB4D3A"/>
<path d="M81.2653 61.0136C81.2872 63.1372 80.4428 65.178 78.9269 66.6654C77.2742 68.3154 75.0257 69.2287 72.6906 69.1986C68.0131 69.1986 64.1158 65.4962 64.1158 61.0136C64.1158 56.531 68.0131 52.8286 72.6906 52.8286C75.6972 52.8342 78.4917 54.3786 80.0961 56.9215C80.8398 58.1586 81.2431 59.5703 81.2653 61.0136Z" fill="#EB4D3A"/>
<path d="M81.8499 52.0493L106.405 48.9315C108.974 48.5816 110.792 46.2427 110.498 43.6667C110.247 41.1018 108.002 39.2017 105.431 39.3797L76.9783 41.3284C76.7814 41.1362 74.0546 51.075 81.8499 52.0493Z" fill="#FDB171"/>
<path d="M63.9211 108.76L45.0178 142.475C41.5103 147.931 31.5708 146.177 33.1304 136.238C34.1048 116.556 40.536 99.2113 51.2542 87.7129C59.6341 91.0256 68.2108 91.4153 76.7835 87.7129C87.5017 99.2106 93.9329 116.556 94.9073 136.238C96.4662 146.177 86.3325 147.93 83.0198 142.475L63.9211 108.76Z" fill="#DE4922"/>
</svg>
