<svg width="18" height="10" viewBox="0 0 18 10" fill="none" xmlns="http://www.w3.org/2000/svg">
<path d="M1.84799 0.469985C1.55527 0.00165433 0.938317 -0.140707 0.469985 0.152011C0.00165433 0.44473 -0.140707 1.06168 0.152011 1.53001L1.84799 0.469985ZM2.40639 4.37952C2.80009 4.76684 3.43323 4.76168 3.82056 4.36798C4.20788 3.97428 4.20272 3.34114 3.80902 2.95381L2.40639 4.37952ZM17.848 1.52997C18.1407 1.06163 17.9983 0.444681 17.53 0.151985C17.0616 -0.14071 16.4447 0.00168157 16.152 0.470027L17.848 1.52997ZM14.1912 2.95378C13.7975 3.34109 13.7923 3.97424 14.1797 4.36795C14.567 4.76166 15.2001 4.76686 15.5938 4.37955L14.1912 2.95378ZM15.6316 2.99306C15.2596 2.58487 14.6271 2.55555 14.2189 2.92757C13.8107 3.2996 13.7814 3.93208 14.1534 4.34027L15.6316 2.99306ZM16.2609 6.65263C16.6329 7.06082 17.2654 7.09014 17.6736 6.71811C18.0818 6.34609 18.1111 5.71361 17.7391 5.30542L16.2609 6.65263ZM15.5939 4.37952C15.9875 3.99219 15.9927 3.35905 15.6054 2.96535C15.2181 2.57165 14.5849 2.56649 14.1912 2.95382L15.5939 4.37952ZM10.9156 5.02718C10.39 5.1965 10.1011 5.75991 10.2704 6.2856C10.4397 6.81129 11.0031 7.10019 11.5288 6.93087L10.9156 5.02718ZM3.84676 4.34031C4.21881 3.93214 4.18952 3.29966 3.78135 2.92761C3.37318 2.55557 2.7407 2.58485 2.36865 2.99302L3.84676 4.34031ZM0.260946 5.30538C-0.111099 5.71354 -0.0818144 6.34603 0.326354 6.71808C0.734522 7.09012 1.36701 7.06084 1.73905 6.65267L0.260946 5.30538ZM3.80899 2.95379C3.41528 2.56648 2.78214 2.57167 2.39483 2.96538C2.00752 3.35909 2.01271 3.99224 2.40642 4.37955L3.80899 2.95379ZM6.47155 6.93087C6.99724 7.10019 7.56065 6.81129 7.72997 6.2856C7.89929 5.75991 7.61039 5.19649 7.0847 5.02718L6.47155 6.93087ZM12.1816 5.69675C12.0257 5.16692 11.4698 4.86379 10.9399 5.01969C10.4101 5.17558 10.107 5.73147 10.2629 6.2613L12.1816 5.69675ZM11.1518 9.28227C11.3077 9.8121 11.8636 10.1152 12.3934 9.95933C12.9232 9.80344 13.2263 9.24755 13.0704 8.71773L11.1518 9.28227ZM11.5289 6.93084C12.0546 6.76148 12.3434 6.19804 12.174 5.67237C12.0047 5.14669 11.4412 4.85784 10.9156 5.0272L11.5289 6.93084ZM7.08478 5.0272C6.5591 4.85784 5.99566 5.14669 5.8263 5.67237C5.65694 6.19804 5.94579 6.76148 6.47147 6.93084L7.08478 5.0272ZM7.73743 6.2614C7.89338 5.73159 7.59031 5.17567 7.0605 5.01972C6.53069 4.86377 5.97477 5.16684 5.81882 5.69665L7.73743 6.2614ZM4.92958 8.71763C4.77363 9.24743 5.0767 9.80335 5.60651 9.9593C6.13632 10.1153 6.69224 9.81218 6.84819 9.28237L4.92958 8.71763ZM0.152011 1.53001C0.839923 2.63063 1.59613 3.58237 2.40639 4.37952L3.80902 2.95381C3.12217 2.27808 2.46191 1.45222 1.84799 0.469985L0.152011 1.53001ZM16.152 0.470027C15.5381 1.45232 14.878 2.27822 14.1912 2.95378L15.5938 4.37955C16.4041 3.5824 17.1602 2.63052 17.848 1.52997L16.152 0.470027ZM14.1534 4.34027L16.2609 6.65263L17.7391 5.30542L15.6316 2.99306L14.1534 4.34027ZM14.1912 2.95382C13.1379 3.99007 12.0255 4.66971 10.9156 5.02718L11.5288 6.93087C12.9756 6.46486 14.3504 5.60282 15.5939 4.37952L14.1912 2.95382ZM2.36865 2.99302L0.260946 5.30538L1.73905 6.65267L3.84676 4.34031L2.36865 2.99302ZM2.40642 4.37955C3.64992 5.60282 5.02472 6.46486 6.47155 6.93087L7.0847 5.02718C5.97487 4.66971 4.8624 3.99007 3.80899 2.95379L2.40642 4.37955ZM10.2629 6.2613L11.1518 9.28227L13.0704 8.71773L12.1816 5.69675L10.2629 6.2613ZM10.9156 5.0272C9.64882 5.43532 8.35153 5.43532 7.08478 5.0272L6.47147 6.93084C8.137 7.46744 9.86335 7.46744 11.5289 6.93084L10.9156 5.0272ZM5.81882 5.69665L4.92958 8.71763L6.84819 9.28237L7.73743 6.2614L5.81882 5.69665Z" fill="#96A7AF"/>
</svg>
