<svg width="18" height="12" viewBox="0 0 18 12" fill="none" xmlns="http://www.w3.org/2000/svg">
<path d="M13.2071 0.792893C12.8166 0.402369 12.1834 0.402369 11.7929 0.792893C11.4024 1.18342 11.4024 1.81658 11.7929 2.20711L13.2071 0.792893ZM16.2929 6.70711C16.6834 7.09763 17.3166 7.09763 17.7071 6.70711C18.0976 6.31658 18.0976 5.68342 17.7071 5.29289L16.2929 6.70711ZM17.7071 6.70711C18.0976 6.31658 18.0976 5.68342 17.7071 5.29289C17.3166 4.90237 16.6834 4.90237 16.2929 5.29289L17.7071 6.70711ZM11.7929 9.79289C11.4024 10.1834 11.4024 10.8166 11.7929 11.2071C12.1834 11.5976 12.8166 11.5976 13.2071 11.2071L11.7929 9.79289ZM17 7C17.5523 7 18 6.55228 18 6C18 5.44772 17.5523 5 17 5V7ZM1 5C0.447715 5 0 5.44772 0 6C0 6.55228 0.447715 7 1 7V5ZM11.7929 2.20711L16.2929 6.70711L17.7071 5.29289L13.2071 0.792893L11.7929 2.20711ZM16.2929 5.29289L11.7929 9.79289L13.2071 11.2071L17.7071 6.70711L16.2929 5.29289ZM17 5H1V7H17V5Z" fill="white"/>
</svg>
