<svg width="11" height="7" viewBox="0 0 11 7" fill="none" xmlns="http://www.w3.org/2000/svg">
<path d="M10.2432 1.12601L9.92888 0.826494C9.82995 0.732956 9.69833 0.681426 9.55765 0.681426C9.41705 0.681426 9.28527 0.732956 9.18633 0.826494L5.60037 4.21969L2.01026 0.822729C1.91149 0.729191 1.7797 0.677734 1.63911 0.677734C1.49851 0.677734 1.36665 0.729191 1.26779 0.822729L0.953355 1.1204C0.748621 1.31397 0.748621 1.62928 0.953355 1.82285L5.2278 5.88188C5.32658 5.97535 5.45821 6.0412 5.60005 6.0412H5.60169C5.74237 6.0412 5.874 5.97527 5.97277 5.88188L10.2432 1.83385C10.3422 1.74039 10.3965 1.61208 10.3966 1.47904C10.3966 1.34593 10.3422 1.2194 10.2432 1.12601Z" fill="#AEAEAE"/>
</svg>
