<svg width="150" height="124" viewBox="0 0 150 124" fill="none" xmlns="http://www.w3.org/2000/svg">
<path d="M101.612 25.328C101.612 25.328 99.6028 21.6317 100.004 18.1414C100.954 12.85 105.055 8.74007 110.25 7.87502C117.08 6.84789 101.612 25.328 101.612 25.328Z" fill="#912909"/>
<path d="M105.227 28.8193C105.227 28.8193 101.812 31.6938 100.808 40.1129C100.26 45.6536 100.396 51.2429 101.213 56.749C102.016 61.6769 104.427 66.8101 103.624 70.917C102.63 76.0265 104.129 81.3107 107.641 85.085C107.641 85.085 105.231 81.8 106.637 76.2554C107.042 74.4073 109.048 71.1239 108.044 65.9924C107.04 60.6539 104.428 55.1094 105.232 51.8244C106.236 48.5393 107.04 45.664 106.236 42.5843C105.432 39.5045 106.236 31.7013 107.039 31.0855C107.842 30.2644 106.236 30.2644 106.236 30.2644L105.227 28.8193Z" fill="#912909"/>
<path d="M103.017 28.8195C102.79 29.2525 102.747 29.7622 102.899 30.2285C103.051 30.6948 103.385 31.0764 103.821 31.2834L105.629 32.3097C106.052 32.5423 106.551 32.586 107.007 32.4306C107.463 32.2753 107.837 31.9345 108.039 31.4887C108.267 31.0557 108.31 30.5459 108.158 30.0796C108.006 29.6133 107.672 29.2317 107.236 29.0247L105.428 27.9984C105.002 27.7803 104.508 27.7444 104.056 27.8983C103.604 28.0523 103.23 28.3837 103.017 28.8195Z" fill="#93A100"/>
<path d="M102.215 19.5792C103.219 13.6249 106.032 7.4646 114.267 7.4646C122.905 7.4646 127.526 14.8565 127.726 19.5792C127.95 22.561 127.609 25.5589 126.722 28.4087C126.317 29.435 122.504 31.8998 121.702 34.9796C120.9 38.0593 102.215 19.5792 102.215 19.5792Z" fill="#912909"/>
<path d="M122.704 82.2079C122.704 82.2079 118.686 88.984 118.686 91.6532C118.486 94.1172 119.49 99.2504 119.49 99.2504L97.3932 107.463C97.3932 107.463 97.1924 95.1427 96.9884 89.8034C96.79 84.671 95.7852 80.7694 95.7852 77.6888C95.5852 74.8144 122.905 78.5107 122.704 82.2079Z" fill="#F09F5B"/>
<path d="M122.302 30.4626C121.855 32.6913 121.653 34.9642 121.7 37.2388C121.098 37.6526 120.897 38.4712 120.093 38.8817C117.164 40.7101 113.867 41.8335 110.451 42.1667C110.451 42.1667 111.053 41.3456 111.857 40.1132L122.302 30.4626Z" fill="#F09F5B"/>
<path d="M125.315 28.8193C125.315 28.8193 128.731 31.6938 129.735 40.1129C130.283 45.6536 130.147 51.2429 129.33 56.749C128.527 61.6769 126.116 66.8101 126.919 70.917C128.021 76.0292 126.509 81.3637 122.904 85.0817C122.904 85.0817 125.314 81.7967 123.908 76.2521C123.503 74.4039 121.497 71.1206 122.501 65.989C123.506 60.6506 126.118 55.1061 125.314 51.821C124.31 48.536 123.506 45.6607 124.31 42.581C125.114 39.5012 124.31 31.698 123.506 31.0822C122.703 30.2611 124.31 30.2611 124.31 30.2611L125.315 28.8193Z" fill="#912909"/>
<path d="M127.525 28.8191C127.753 29.2521 127.795 29.7618 127.643 30.2282C127.491 30.6945 127.158 31.0761 126.722 31.2831L124.914 32.3094C124.49 32.5419 123.991 32.5857 123.535 32.4303C123.079 32.2749 122.706 31.9341 122.503 31.4883C122.276 31.0553 122.233 30.5456 122.385 30.0792C122.537 29.6129 122.87 29.2313 123.307 29.0243L125.115 27.998C126.119 27.5842 127.124 27.7928 127.525 28.8191Z" fill="#00265F"/>
<path d="M122.503 30.668C121.901 32.311 121.7 34.7749 118.887 37.0336C116.074 39.2923 111.856 42.1652 110.45 42.1652C109.043 42.1652 108.039 42.579 105.83 38.8801C103.62 35.389 102.013 33.5417 102.013 29.8453C101.812 26.149 100.405 18.7546 104.825 15.8826C108.241 13.8333 113.664 14.8571 116.477 17.7316C119.289 20.8113 119.49 21.8385 120.495 26.5612C120.495 26.5612 122.906 23.2761 123.91 23.0701C124.915 22.864 125.719 23.4839 125.116 25.534C124.514 27.5841 124.112 27.1769 124.112 28.2032C124.182 29.07 123.971 29.9362 123.51 30.6672C122.704 31.2838 122.503 30.668 122.503 30.668Z" fill="#FDB171"/>
<path d="M107.035 14.8567C107.035 14.8567 112.66 25.1197 120.494 26.766L123.507 17.5275L116.276 11.9822L107.035 14.8567Z" fill="#912909"/>
<path d="M108.643 15.0614C108.643 15.0614 104.826 21.0123 101.611 22.6586C101.611 22.6586 101.41 14.4448 105.83 10.7493L108.643 15.0614Z" fill="#912909"/>
<path d="M98.1817 114.213C97.6959 114.047 97.5542 113.513 97.4093 112.812C97.2157 111.901 97.4093 111.668 97.4093 111.668V108.274C97.4093 108.274 98.568 106.88 102.915 104.737C107.263 102.594 112.86 100.327 116.626 99.8331C118.003 99.6237 119.402 99.6237 120.778 99.8331C122.034 101.482 123.917 104.16 123.917 104.16C123.917 104.16 121.551 104.077 113.102 107.416C103.64 111.166 99.5364 114.175 98.619 114.257C98.4736 114.305 98.3152 114.289 98.1817 114.213Z" fill="#FCB698"/>
<path d="M97.1581 113.205C97.2839 113.306 98.5167 113.158 98.706 113.206C99.6213 113.371 104.766 109.727 115.453 106.206C124.991 103.072 125.639 106.207 125.639 106.207C125.639 106.207 133.093 118.413 122.553 130.591C122.553 130.591 121.9 132.973 121.604 134.595C121.604 134.595 123.483 132.936 117.213 134.595C111.745 136.051 103.415 138.704 101.293 139.387L99.2902 139.388L99.2934 136.296C99.2934 136.296 98.0281 126.878 97.7923 119.624C97.6607 117.283 96.8165 115.222 97.1581 113.205Z" fill="#DE4922"/>
<path d="M122.301 30.2571C121.699 33.5421 120.895 40.3182 123.909 43.8093C126.923 47.3004 131.542 45.4522 135.961 54.2818C140.381 63.1113 142.189 67.4193 145.404 72.9647C148.618 78.5101 151.631 85.287 150.027 87.5457C148.621 89.8044 127.127 104.383 124.515 106.026C122.105 107.669 117.083 110.749 114.873 109.722C112.663 108.696 110.655 107.669 109.448 107.874C108.242 108.079 102.216 108.9 102.016 107.874C102.016 106.848 103.824 106.848 104.627 106.436C105.43 106.231 107.439 105.204 107.038 104.999C105.783 104.694 104.506 104.488 103.221 104.383C102.618 104.383 100.007 106.026 99.4035 105.409C98.8003 104.793 98.6003 104.383 100.006 103.561C101.412 102.739 102.011 102.33 102.011 102.33C102.011 102.33 98.5954 103.563 98.1938 102.536C97.7922 101.508 98.1938 100.893 99.8011 100.277C101.007 99.8631 102.412 98.634 103.819 99.0445C104.836 99.1794 105.842 99.3852 106.832 99.6603C106.832 99.6603 105.024 98.4279 104.622 98.2226C104.217 97.8088 103.015 98.0174 102.011 98.2226C101.007 98.4279 99.8011 98.4279 99.6003 98.0174C99.3995 97.6069 99.1954 96.785 101.007 96.1692C102.177 95.7947 103.42 95.7241 104.623 95.9639C106.029 96.1692 107.837 97.1963 108.842 97.4016C109.846 97.6068 113.862 98.634 114.064 98.634C114.267 98.634 114.265 98.2202 113.659 96.5805C113.054 94.9409 112.856 93.5008 113.459 92.8842C114.061 92.2676 114.463 93.298 115.467 95.1429C116.271 96.9911 117.878 100.893 118.883 100.481C121.932 98.5329 124.822 96.3358 127.525 93.9113C129.534 91.8579 134.556 83.2344 137.167 82.4125C132.992 79.0782 129.739 74.6906 127.726 69.6814L126.118 73.3785L95.3833 71.9401C95.3833 71.9401 91.9703 67.8332 92.772 63.1105C93.5736 58.3878 95.9865 56.3344 98.9995 53.6652C102.012 50.9959 105.428 49.5583 106.231 48.1198C106.926 46.5467 108.372 45.4574 110.048 45.2453C110.499 43.4996 110.768 41.7103 110.851 39.9069L122.301 30.2571Z" fill="#FDB171"/>
<path d="M101.411 99.8661C102.065 99.435 102.859 99.2862 103.621 99.4523C104.637 99.5872 105.644 99.7929 106.634 100.068C106.634 100.068 104.825 98.8357 104.424 98.6304C103.772 98.4392 103.091 98.3708 102.415 98.4285L102.616 98.2232C102.857 97.6318 102.857 96.9664 102.616 96.375L102.415 96.1698C103.138 95.9646 103.902 95.9646 104.625 96.1698C106.031 96.375 107.838 97.4021 108.843 97.6074C109.848 97.8127 113.864 98.8398 114.066 98.8398C114.268 98.8398 114.267 98.426 113.661 96.7864C114.435 96.7647 115.193 96.5536 115.871 96.1706C116.674 98.0188 118.081 100.893 118.884 100.688C118.884 100.688 117.678 101.92 117.678 105.411C117.678 108.08 117.879 109.107 118.083 109.518C117.079 109.723 116.074 109.931 115.472 109.518C113.262 108.491 111.253 107.464 110.047 107.669C109.642 107.669 108.439 107.875 107.034 108.083C107.034 108.083 106.431 105.824 105.828 106.03C106.631 105.616 107.837 105.003 107.435 104.797C106.18 104.492 104.904 104.286 103.618 104.182H103.42C103.219 103.361 102.817 102.128 101.813 102.333L102.217 102.128H102.013C102.013 102.33 103.018 101.098 101.411 99.8661Z" fill="#FB8262"/>
<path d="M122.704 82.2035C122.704 82.2035 115.272 79.9448 108.643 79.9448C102.013 79.9448 96.7908 78.5113 95.5851 77.6902L95.3843 71.9404L126.119 73.3781L122.704 82.2035Z" fill="#F3937A"/>
<path d="M92.9735 63.1106C93.7768 58.388 96.1873 56.3345 99.201 53.6653C99.201 53.6653 95.384 58.1827 97.9954 58.7968C100.607 59.411 106.229 55.5135 110.45 52.0224C114.267 48.7374 120.491 46.0673 124.311 44.22C125.595 45.3555 127.102 46.1958 128.731 46.6839C124.698 46.9575 121.143 49.4853 119.49 53.2548C115.874 60.6467 121.298 68.8605 126.722 71.7349L125.516 75.226C125.516 75.226 111.654 73.9936 107.236 73.7884C104.022 73.5831 95.5848 71.9402 95.5848 71.9402C95.5848 71.9402 91.9687 67.8333 92.9735 63.1106Z" fill="#DE4922"/>
<path d="M73.4078 62.6342C72.8111 66.295 77.3868 75.8529 77.3868 75.8529C79.177 77.0729 80.7689 80.9373 82.3608 84.5972C83.5114 86.9333 85.4068 88.7986 87.7341 89.8852C82.9568 91.7152 72.8127 107.171 72.0167 108.59C68.237 115.505 56.2993 109.2 56.2993 109.2C55.1058 110.42 56.8961 113.064 59.4823 114.691C61.733 115.649 64.0636 116.397 66.4459 116.926C71.2232 117.74 70.624 116.112 76.7916 113.469C82.9592 111.029 98.0791 97.6065 102.46 94.3496C106.84 91.0928 99.8734 79.0974 95.2977 71.3694C90.9212 63.6415 91.3187 58.1508 86.9414 54.6936L73.4078 62.6342Z" fill="#FDB171"/>
<path d="M32.0262 121C30.5062 128.928 29.4433 136.941 28.8432 144.996C28.2465 155.774 49.5339 148.453 49.5339 148.453L51.3242 145.81L52.1202 122.423L32.0262 121Z" fill="#FDB171"/>
<path d="M29.8378 48.6027C37.1989 50.0263 44.1624 45.9592 44.3608 41.892C44.5592 37.8249 44.56 38.6385 44.56 38.6385L52.1203 38.8421V126.287L39.3859 130.354L32.224 121.406C32.224 121.406 36.7997 100.46 31.8264 95.169C26.8531 89.8777 25.0629 78.9061 23.2726 72.8029L29.8378 48.6027Z" fill="#FDB171"/>
<path d="M29.8378 48.6027C37.1989 50.0263 44.1624 45.9592 44.3608 41.892C44.5592 37.8249 44.56 38.6385 44.56 38.6385L52.1203 38.8421V126.287L39.3859 130.354L32.224 121.406C32.224 121.406 36.7997 100.46 31.8264 95.169C26.8531 89.8777 25.0629 78.9061 23.2726 72.8029L29.8378 48.6027Z" fill="#FDB171"/>
<path d="M33.8176 66.9054C34.4143 70.5662 26.4564 75.8533 26.4564 75.8533C24.6653 77.0733 23.0751 80.941 21.4823 84.5976C20.3324 86.9333 18.438 88.7985 16.1115 89.8856C20.8888 91.7156 33.0224 110.019 34.2159 111.239C35.4095 112.46 36.2054 107.986 36.2054 107.986C34.4151 105.751 37.2006 103.309 38.1949 102.292C39.1892 101.274 41.1795 101.682 43.5665 104.526C45.7528 107.373 42.1738 113.068 38.7892 116.118C35.6062 119.168 32.6216 116.931 26.454 114.491C20.2888 111.849 5.96414 97.6127 1.38844 94.3591C-2.98808 91.1056 3.97467 79.1069 8.55037 71.379C12.9269 63.651 12.5293 58.1603 16.9066 54.7031L33.8176 66.9054Z" fill="#FDB171"/>
<path d="M80.9692 72.396C79.1789 78.4968 77.3878 89.4782 72.4145 94.7654C67.4413 100.053 72.017 121.002 72.017 121.002L69.2315 127.103L51.9222 125.88V38.638L59.4826 38.4344C59.4826 38.4344 59.4826 37.6208 59.6817 41.6879C59.8809 45.7551 65.0534 47.3823 71.221 48.3986L80.9692 72.396Z" fill="#FDB171"/>
<path d="M56.4977 44.1285L59.4823 41.0777C59.2831 37.6206 59.2831 38.4342 59.2831 38.4342L51.922 38.6378L44.3617 38.4342C44.3617 38.4342 44.3617 37.6206 44.1625 41.0777C45.1054 42.1464 46.1016 43.1647 47.1471 44.1285C48.3406 45.5521 50.3301 44.9421 50.9268 44.9421H52.9163C53.5131 45.1457 55.5025 45.5521 56.4977 44.1285Z" fill="#F09F5B"/>
<path d="M64.8532 23.1831H64.654C64.8532 22.3695 64.8532 21.3531 65.0516 20.5395C65.6492 16.0651 66.8427 3.25366 52.1172 3.25366C37.3917 3.25366 38.5949 16.0651 39.1884 20.5395C39.3876 21.3531 39.3876 22.3695 39.586 23.1831H39.3868C37.2006 21.5559 36.9998 26.0302 37.7949 27.4538C38.3921 28.302 38.7995 29.274 38.9885 30.301C39.386 31.3182 39.9836 31.521 40.3812 31.3182C40.3812 31.9282 40.5804 32.5382 40.5804 32.9454C40.7795 35.3854 46.3496 40.0633 47.5439 41.4869C48.7382 42.9105 50.7269 42.3005 51.3237 42.3005H53.3131C53.9099 42.3005 55.8994 42.9105 57.0929 41.4869C58.2864 40.0633 63.8573 35.1826 64.0564 32.9454C64.0357 32.3955 64.103 31.8459 64.2556 31.3182C64.6532 31.5218 65.2508 31.3182 65.6483 30.301C65.8373 29.274 66.2447 28.302 66.8419 27.4538C67.2402 26.0302 67.0419 21.3531 64.8532 23.1831Z" fill="#FDB171"/>
<path d="M62.466 0C62.466 0 63.0627 1.62719 50.5291 1.62719H49.7332C37.7963 2.2347 38.3899 14.0323 38.3899 14.0323C38.3899 17.0831 38.9866 19.9294 39.385 22.9802L39.5842 21.5566C39.5842 21.5566 39.7834 20.133 40.181 18.303V18.0994C40.3801 17.693 40.5785 17.0822 40.7777 16.6758C44.1599 9.96511 51.9186 12.2023 51.9186 12.2023C51.9186 12.2023 59.6773 9.9676 62.8611 16.8794C63.0603 17.2858 63.2587 17.8967 63.4579 18.303C63.511 18.3019 63.5623 18.323 63.5999 18.3614C63.6375 18.3998 63.6582 18.4523 63.6571 18.5066C64.01 19.5557 64.211 20.6518 64.2538 21.7602L64.453 23.1838C64.8981 21.3082 65.2304 19.4065 65.4481 17.4894C66.2657 11.4843 65.2228 5.36829 62.466 0Z" fill="#37120B"/>
<path d="M12.3311 62.2281C12.3311 62.2281 16.5092 46.9758 28.8436 46.9758C37.3982 46.9758 39.7861 48.3994 44.1626 44.3323C48.5391 40.2651 44.1626 54.7038 44.1626 54.7038L23.8703 69.956L12.3311 62.2281Z" fill="#FDB171"/>
<path d="M91.5124 62.2281C91.5124 62.2281 87.3343 46.9758 74.9998 46.9758C66.4452 46.9758 64.0573 48.3994 59.6808 44.3323C55.3043 40.2651 59.6808 54.7038 59.6808 54.7038L79.9731 69.7524L91.5124 62.2281Z" fill="#FDB171"/>
<path d="M28.6443 116.932C29.6394 117.338 30.2362 129.947 29.8378 131.981C29.4394 134.014 33.0208 131.777 33.6176 125.27C34.2143 118.763 33.8168 119.169 34.8111 119.779C35.8054 120.389 37.5965 122.83 38.79 122.219C39.9835 121.608 39.9835 120.186 37.9941 118.152C35.0095 115.305 35.607 114.085 32.2248 109.814C28.8427 105.543 26.854 107.781 26.854 107.781L28.6443 116.932Z" fill="#FDB171"/>
<path d="M75.1981 116.932C74.203 117.338 73.6062 129.947 74.0046 131.98C74.2038 134.014 70.8216 131.777 70.2249 125.27C69.6281 118.763 70.0257 119.169 69.0313 119.779C68.037 120.389 66.2459 122.828 65.0548 122.219C63.8637 121.61 63.8613 120.185 65.8508 118.152C68.8354 115.305 68.2378 114.085 71.62 109.814C75.0022 105.543 76.9917 107.78 76.9917 107.78L75.1981 116.932Z" fill="#FDB171"/>
<path d="M73.0838 89.7134C69.4741 91.7761 65.1257 91.9845 61.343 90.2762C59.3252 89.3384 57.8612 88.2136 56.5737 87.6508C55.1073 87.0992 53.5499 86.8445 51.9883 86.9009C51.128 86.8632 50.2662 86.9262 49.4199 87.0888L47.2191 87.6516C45.7519 88.0266 44.4661 89.3392 42.4499 90.277C38.6849 92.0799 34.2924 91.8693 30.709 89.7142C34.2603 89.9665 37.797 89.0462 40.798 87.0888C42.3093 85.852 43.9029 84.7242 45.5673 83.7136C46.5409 83.2056 47.5986 82.8876 48.6863 82.7758C49.7867 82.588 50.8871 82.588 51.8045 82.4009C54.0101 82.3829 56.1956 82.8298 58.2247 83.7136C60.2426 84.6513 61.7065 86.1511 62.994 87.0888C65.9688 89.1079 69.5267 90.0334 73.0838 89.7134Z" fill="#F09F5B"/>
<path d="M65.1968 101.339C62.999 102.558 60.3973 102.762 58.0429 101.902C56.7587 101.527 55.8421 100.777 54.9247 100.589C53.9617 100.36 52.978 100.235 51.9895 100.214C50.9965 100.141 49.9992 100.269 49.0543 100.589C48.1369 100.777 47.2203 101.527 45.9361 101.902C43.5817 102.762 40.98 102.558 38.7822 101.339C40.9477 101.353 43.0852 100.839 45.017 99.839C45.9815 99.0921 47.028 98.463 48.1353 97.9643C49.3836 97.5513 50.6776 97.2994 51.9871 97.2145C53.3079 97.1903 54.6193 97.4456 55.8389 97.9643C56.9241 98.506 57.9666 99.1328 58.9571 99.839C60.8506 100.947 63.0186 101.468 65.1968 101.339Z" fill="#F09F5B"/>
<path d="M62.4453 110.335C60.7455 111.415 58.671 111.688 56.7586 111.084C55.6582 110.709 54.9246 110.335 54.374 110.147C53.652 109.983 52.9118 109.92 52.1732 109.959C50.3392 109.959 49.6048 110.334 47.404 111.084C45.5034 111.809 43.3752 111.529 41.7166 110.335C43.4066 110.266 45.0501 109.749 46.4858 108.835C47.2442 108.277 48.0411 107.775 48.8704 107.335C50.884 106.586 53.0916 106.586 55.1052 107.335C55.9719 107.704 56.7766 108.21 57.4898 108.835C58.9822 109.775 60.6925 110.293 62.4453 110.335Z" fill="#F09F5B"/>
<path d="M60.9773 118.026C59.5207 119.025 57.7015 119.3 56.0242 118.776C54.8258 118.171 53.5091 117.85 52.1724 117.838C50.7052 117.838 50.1546 118.026 48.1368 118.776C46.4609 119.316 44.6355 119.039 43.1846 118.026C44.6301 117.874 46.0164 117.359 47.2202 116.526C47.8368 116.005 48.5146 115.564 49.238 115.214C50.1168 114.864 51.0484 114.674 51.991 114.651C52.9355 114.656 53.8702 114.847 54.7441 115.214C55.4917 115.517 56.1763 115.963 56.7619 116.526C57.993 117.437 59.4588 117.959 60.9773 118.026Z" fill="#F09F5B"/>
<path d="M24.0499 58.0659C27.3795 59.3976 30.3916 61.7648 31.8183 65.3155L32.2936 66.6472L32.6111 67.8307C32.8072 68.4991 33.0729 69.1439 33.4038 69.7542C33.9533 70.9701 34.834 71.9983 35.9406 72.7156C37.1632 73.4534 38.5081 73.955 39.9082 74.1955L41.0183 74.3437H42.2863C43.0818 74.3681 43.8778 74.3185 44.6645 74.1955C46.2188 74.0728 47.7307 73.6192 49.1033 72.8638C50.4109 71.9723 51.3224 70.5902 51.6402 69.0168C51.978 70.8156 51.3777 72.6646 50.0548 73.9C48.6774 75.219 46.9807 76.1384 45.1398 76.5635C44.2007 76.7834 43.2469 76.9317 42.2863 77.0071C41.811 77.0071 41.3349 77.1552 41.0183 77.1552H39.5876C37.5203 77.1958 35.4848 76.6312 33.7212 75.528C31.9472 74.5257 30.5935 72.8944 29.9155 70.9419C29.5079 70.1055 29.24 69.2053 29.1228 68.2785L28.9609 67.0949C28.9609 66.7986 28.7989 66.355 28.7989 66.0595C28.1722 63.5401 26.2694 60.7294 24.0499 58.0659Z" fill="#F09F5B"/>
<path d="M80.1674 58.0659C77.9286 60.7343 76.0095 63.4027 75.3699 66.2201C75.3699 66.5164 75.2079 66.965 75.2079 67.258L75.046 68.444C74.8532 69.3548 74.5858 70.2474 74.2468 71.1124C73.4538 73.0073 72.1151 74.6105 70.4087 75.7085C68.6277 76.8145 66.5757 77.38 64.4922 77.339H63.0573C62.6258 77.3631 62.1933 77.3131 61.778 77.1908L58.8994 76.7464C57.0449 76.3219 55.334 75.401 53.9424 74.078C52.6762 72.8014 52.0821 70.9838 52.3432 69.1856C52.6662 70.7648 53.5856 72.1499 54.9019 73.0401C56.2606 73.8634 57.8009 74.3223 59.3796 74.3743C60.1731 74.4974 60.9758 74.547 61.778 74.5224H63.0573L64.1764 74.3743C65.5932 74.1608 66.953 73.6563 68.1739 72.8911C69.2562 72.1374 70.136 71.118 70.7326 69.9264C71.0525 69.3338 71.212 68.5922 71.5318 67.9988L71.8517 66.8127L72.331 65.4785C73.8497 62.0222 76.6787 59.3462 80.1674 58.0659Z" fill="#F09F5B"/>
</svg>
