<svg width="195" height="61" viewBox="0 0 195 61" fill="none" xmlns="http://www.w3.org/2000/svg">
<path d="M14.168 46.152C11.8213 46.152 9.432 45.8533 7 45.256C4.568 44.7013 2.54133 43.9547 0.92 43.016L1.24 34.312H1.88L3.864 38.472C4.46133 39.6667 5.10133 40.7333 5.784 41.672C6.46667 42.568 7.40533 43.272 8.6 43.784C9.45333 44.2107 10.264 44.5093 11.032 44.68C11.8427 44.808 12.7387 44.872 13.72 44.872C16.3227 44.872 18.3707 44.168 19.864 42.76C21.4 41.352 22.168 39.5387 22.168 37.32C22.168 35.2293 21.656 33.608 20.632 32.456C19.608 31.2613 17.9653 30.1093 15.704 29L13.08 27.848C9.41067 26.2267 6.53067 24.3707 4.44 22.28C2.392 20.1467 1.368 17.3307 1.368 13.832C1.368 11.3147 2.008 9.13867 3.288 7.304C4.61067 5.46933 6.424 4.06133 8.728 3.08C11.0747 2.09866 13.8053 1.608 16.92 1.608C19.1813 1.608 21.3147 1.90666 23.32 2.504C25.368 3.10133 27.1387 3.912 28.632 4.936L28.248 12.616H27.608L24.984 7.816C24.2587 6.32266 23.5333 5.27733 22.808 4.68C22.0827 4.04 21.2507 3.592 20.312 3.336C19.7573 3.16533 19.2453 3.05866 18.776 3.016C18.3067 2.93066 17.7093 2.888 16.984 2.888C14.808 2.888 12.9733 3.528 11.48 4.808C9.98667 6.04533 9.24 7.73066 9.24 9.864C9.24 12.04 9.816 13.7893 10.968 15.112C12.12 16.392 13.8053 17.544 16.024 18.568L18.968 19.848C23.064 21.64 26.008 23.56 27.8 25.608C29.592 27.6133 30.488 30.216 30.488 33.416C30.488 37.1707 29.0587 40.2427 26.2 42.632C23.384 44.9787 19.3733 46.152 14.168 46.152ZM45.19 45.96C42.4593 45.96 40.326 45.2773 38.79 43.912C37.2967 42.5467 36.55 40.3707 36.55 37.384V15.496H32.134V14.856L33.67 14.6C34.9927 14.3013 36.1233 13.8747 37.062 13.32C38.0433 12.7653 39.0033 12.0187 39.942 11.08L45.19 5.256H45.83L45.638 14.216H52.806V15.496H45.574V38.536C45.574 40.0293 45.894 41.16 46.534 41.928C47.2167 42.696 48.07 43.08 49.094 43.08C49.99 43.08 50.7793 42.8667 51.462 42.44C52.1447 41.9707 52.8273 41.352 53.51 40.584L54.15 41.224C53.2967 42.6747 52.1233 43.8267 50.63 44.68C49.1367 45.5333 47.3233 45.96 45.19 45.96ZM65.499 45.96C63.0243 45.96 60.9337 45.256 59.227 43.848C57.563 42.44 56.731 40.4133 56.731 37.768C56.731 35.7627 57.755 33.928 59.803 32.264C61.851 30.5573 65.0723 29.2773 69.467 28.424C70.1497 28.296 70.9177 28.168 71.771 28.04C72.6243 27.8693 73.5203 27.6987 74.459 27.528V22.472C74.459 19.5707 74.0963 17.544 73.371 16.392C72.6883 15.1973 71.6003 14.6 70.107 14.6C69.083 14.6 68.2723 14.9413 67.675 15.624C67.0777 16.264 66.6937 17.3947 66.523 19.016L66.395 19.72C66.3097 21.5547 65.8617 22.8987 65.051 23.752C64.2403 24.6053 63.2377 25.032 62.043 25.032C60.9337 25.032 60.0163 24.6907 59.291 24.008C58.5657 23.3253 58.203 22.408 58.203 21.256C58.203 19.5067 58.8003 18.0347 59.995 16.84C61.2323 15.6453 62.8537 14.7493 64.859 14.152C66.8643 13.5547 69.0403 13.256 71.387 13.256C75.1843 13.256 78.107 14.1947 80.155 16.072C82.2457 17.9067 83.291 20.9147 83.291 25.096V39.24C83.291 41.16 84.187 42.12 85.979 42.12H87.387L87.963 42.632C87.1523 43.656 86.2563 44.4453 85.275 45C84.3363 45.5547 82.9923 45.832 81.243 45.832C79.3657 45.832 77.8723 45.4053 76.763 44.552C75.6963 43.656 74.9923 42.4827 74.651 41.032C73.371 42.3973 72.0483 43.5707 70.683 44.552C69.3603 45.4907 67.6323 45.96 65.499 45.96ZM69.403 42.056C70.2563 42.056 71.0457 41.864 71.771 41.48C72.539 41.0533 73.435 40.4133 74.459 39.56V28.808C74.0323 28.8933 73.6057 28.9787 73.179 29.064C72.7523 29.1493 72.2617 29.2347 71.707 29.32C69.7443 29.832 68.1657 30.7067 66.971 31.944C65.819 33.1387 65.243 34.76 65.243 36.808C65.243 38.5573 65.6483 39.88 66.459 40.776C67.2697 41.6293 68.251 42.056 69.403 42.056ZM94.168 60.36C92.4613 60.36 91.096 59.9333 90.072 59.08C89.0907 58.2267 88.6 57.1387 88.6 55.816C88.6 54.6213 89.0267 53.6613 89.88 52.936C90.7333 52.2107 91.6933 51.848 92.76 51.848C93.8267 51.848 94.7227 52.0613 95.448 52.488C96.1733 52.9573 96.8133 53.6187 97.368 54.472L97.816 54.984C98.7547 56.264 99.6933 56.2427 100.632 54.92C101.016 54.28 101.443 53.4267 101.912 52.36C102.424 51.336 103 49.9493 103.64 48.2L91.224 18.504C90.9253 17.6933 90.6053 17.0533 90.264 16.584C89.9227 16.072 89.368 15.6453 88.6 15.304L87.448 14.856V14.216H103.384V14.792L102.104 15.304C101.165 15.6027 100.675 16.0933 100.632 16.776C100.632 17.416 100.803 18.2267 101.144 19.208L107.8 36.488L114.136 19.016C114.477 18.0347 114.605 17.224 114.52 16.584C114.435 15.9013 113.901 15.432 112.92 15.176L111.576 14.856V14.216H120.472V14.856L119.064 15.304C118.083 15.6027 117.4 16.0293 117.016 16.584C116.632 17.1387 116.269 17.9067 115.928 18.888L105.624 46.984C103.96 51.464 102.296 54.8133 100.632 57.032C98.968 59.2507 96.8133 60.36 94.168 60.36Z" fill="#3FDB9C"/>
<path d="M122.721 45V44.36L123.873 43.976C124.726 43.6773 125.302 43.272 125.601 42.76C125.899 42.248 126.049 41.5653 126.049 40.712C126.091 38.152 126.113 35.5707 126.113 32.968C126.113 30.3653 126.113 27.7627 126.113 25.16V22.6C126.113 20.04 126.113 17.48 126.113 14.92C126.113 12.3173 126.091 9.736 126.049 7.176C126.049 6.32267 125.921 5.64 125.665 5.128C125.451 4.616 124.939 4.21066 124.129 3.912L122.721 3.4V2.76H153.697L154.145 13.384H153.505L149.857 6.664C149.43 5.85333 148.939 5.21333 148.385 4.744C147.83 4.27466 147.062 4.04 146.081 4.04H135.777C135.734 7.06933 135.713 10.1627 135.713 13.32C135.713 16.4773 135.713 19.6133 135.713 22.728H142.369C143.35 22.728 144.075 22.5147 144.545 22.088C145.014 21.6613 145.462 21.0427 145.889 20.232L147.233 17.8H147.873V29H147.233L145.825 26.568C145.398 25.8 144.95 25.1813 144.481 24.712C144.054 24.2427 143.35 24.008 142.369 24.008H135.713C135.713 26.9947 135.713 29.8533 135.713 32.584C135.713 35.272 135.734 37.9173 135.777 40.52C135.777 42.184 136.587 43.272 138.208 43.784L140.128 44.36V45H122.721ZM163.335 9.928C161.884 9.928 160.647 9.48 159.623 8.584C158.642 7.64533 158.151 6.472 158.151 5.064C158.151 3.61333 158.642 2.44 159.623 1.544C160.647 0.647998 161.884 0.199997 163.335 0.199997C164.786 0.199997 166.002 0.647998 166.983 1.544C167.964 2.44 168.455 3.61333 168.455 5.064C168.455 6.472 167.964 7.64533 166.983 8.584C166.002 9.48 164.786 9.928 163.335 9.928ZM155.783 45V44.36L156.679 44.104C157.532 43.848 158.108 43.464 158.407 42.952C158.748 42.44 158.919 41.7573 158.919 40.904V20.872C158.919 19.976 158.748 19.3147 158.407 18.888C158.108 18.4187 157.532 18.0987 156.679 17.928L155.783 17.736V17.096L167.495 13.32L168.135 13.96L167.943 23.048V40.968C167.943 41.8213 168.092 42.504 168.391 43.016C168.732 43.528 169.308 43.912 170.119 44.168L170.759 44.36V45H155.783ZM185.753 45.96C183.022 45.96 180.889 45.2773 179.353 43.912C177.859 42.5467 177.113 40.3707 177.113 37.384V15.496H172.697V14.856L174.233 14.6C175.555 14.3013 176.686 13.8747 177.625 13.32C178.606 12.7653 179.566 12.0187 180.505 11.08L185.753 5.256H186.393L186.201 14.216H193.369V15.496H186.137V38.536C186.137 40.0293 186.457 41.16 187.097 41.928C187.779 42.696 188.633 43.08 189.657 43.08C190.553 43.08 191.342 42.8667 192.025 42.44C192.707 41.9707 193.39 41.352 194.073 40.584L194.713 41.224C193.859 42.6747 192.686 43.8267 191.193 44.68C189.699 45.5333 187.886 45.96 185.753 45.96Z" fill="#FF535B"/>
</svg>
