<svg width="28" height="21" viewBox="0 0 28 21" fill="none" xmlns="http://www.w3.org/2000/svg">
<path d="M28 13.9125C28 14.7 26.6 15.225 24.9667 15.4875C23.9167 13.2563 21.8167 11.55 19.3667 10.3687C19.6 9.975 19.8333 9.7125 20.0667 9.31875H21C24.6167 9.1875 28 11.6813 28 13.9125ZM7.93333 9.1875H7C3.38333 9.1875 0 11.6813 0 13.9125C0 14.7 1.4 15.225 3.03333 15.4875C4.08333 13.2563 6.18333 11.55 8.63333 10.3687L7.93333 9.1875ZM14 10.5C16.5667 10.5 18.6667 8.1375 18.6667 5.25C18.6667 2.3625 16.5667 0 14 0C11.4333 0 9.33333 2.3625 9.33333 5.25C9.33333 8.1375 11.4333 10.5 14 10.5ZM14 11.8125C9.21667 11.8125 4.66667 15.225 4.66667 18.375C4.66667 21 14 21 14 21C14 21 23.3333 21 23.3333 18.375C23.3333 15.225 18.7833 11.8125 14 11.8125ZM20.65 7.875H21C22.9833 7.875 24.5 6.16875 24.5 3.9375C24.5 1.70625 22.9833 0 21 0C20.4167 0 19.95 0.13125 19.4833 0.39375C20.4167 1.70625 21 3.4125 21 5.25C21 6.16875 20.8833 7.0875 20.65 7.875ZM7 7.875H7.35C7.11667 7.0875 7 6.16875 7 5.25C7 3.4125 7.58333 1.70625 8.51667 0.39375C8.05 0.13125 7.58333 0 7 0C5.01667 0 3.5 1.70625 3.5 3.9375C3.5 6.16875 5.01667 7.875 7 7.875Z" fill="#96A7AF"/>
</svg>
